# xmcd CD database file
#
# Track frame offsets:
#	150
#	10203
#	19050
#	30170
#	44812
#	54365
#	64117
#	75053
#	86476
#	98806
#	108509
#	120448
#
# Disc length: 1744 seconds
#
# Revision: 2
# Processed by: cddbd v1.5.2PL0 Copyright (c) Steve Scherf et al.
# Submitted via: CDex 1.51
#
DISCID=8206ce0c
DTITLE=Patsy Montana - Cowboy's Sweetheart
DYEAR=1996
DGENRE=Country
TTITLE0=Cowboy's Sweetheart
TTITLE1=Adobe Hacienda
TTITLE2=Little Shoes
TTITLE3=My Dad Got A Job
TTITLE4=Back To Strangers
TTITLE5=Yodeling Ghost
TTITLE6=Wabash Cannonball
TTITLE7=16 Pounds (Answer to 16 Tons)
TTITLE8=I'll Be All Smiles Tonight
TTITLE9=Two Time Love
TTITLE10=Headed for a Big Heartache
TTITLE11=He Taught Me How To Yodel
EXTD=King Midline\nKMCD-6103-2\nCopyright 1996 King Records, Inc. Nashville, TN\n\nManufactured and Distributed by\nHoghland Music, Inc. Dearborn, MI\n YEAR: 1996
EXTT0=
EXTT1=
EXTT2=
EXTT3=
EXTT4=
EXTT5=
EXTT6=
EXTT7=
EXTT8=
EXTT9=
EXTT10=
EXTT11=
PLAYORDER=
